<?xml version="1.0" standalone="no"?>
<!DOCTYPE svg PUBLIC "-//W3C//DTD SVG 20010904//EN"
 "http://www.w3.org/TR/2001/REC-SVG-20010904/DTD/svg10.dtd">
<svg version="1.0" xmlns="http://www.w3.org/2000/svg"
 width="512.000000pt" height="512.000000pt" viewBox="0 0 512.000000 512.000000"
 preserveAspectRatio="xMidYMid meet">
<metadata>
Created by potrace 1.14, written by Peter Selinger 2001-2017
</metadata>
<g transform="translate(0.000000,512.000000) scale(0.100000,-0.100000)"
fill="#000000" stroke="none">
<path d="M2067 4689 c-60 -10 -72 -29 -138 -219 -50 -147 -49 -146 -159 -190
-90 -37 -339 -188 -387 -235 -9 -9 -45 -5 -150 16 -174 35 -224 37 -256 7 -37
-35 -517 -873 -517 -903 0 -37 22 -76 92 -158 34 -39 65 -74 68 -77 26 -24 69
-83 66 -89 -26 -41 -27 -415 -3 -556 3 -14 -24 -52 -83 -120 -124 -142 -143
-172 -137 -215 3 -20 52 -116 112 -220 59 -102 115 -198 125 -215 223 -387
270 -464 292 -476 27 -14 106 -7 263 25 92 19 122 22 130 12 13 -15 130 -98
175 -124 131 -74 163 -91 233 -122 43 -19 82 -39 86 -44 5 -6 23 -56 41 -111
41 -124 81 -216 104 -234 15 -12 100 -15 529 -14 380 0 518 3 534 12 31 16 58
72 108 221 38 116 44 126 76 142 19 10 79 39 134 66 107 52 180 97 286 173 60
44 68 47 100 39 65 -17 204 -42 264 -47 49 -4 65 -1 83 14 19 15 100 148 210
343 14 25 90 156 169 292 85 146 143 257 143 273 0 46 -47 112 -190 268 -36
40 -38 49 -25 127 11 68 13 298 3 387 -5 43 -10 88 -11 99 -1 14 20 46 58 89
149 169 174 209 161 259 -3 14 -51 102 -106 196 -55 95 -100 174 -100 177 0 2
-8 16 -19 31 -10 15 -74 124 -142 242 -68 118 -134 225 -146 238 -16 16 -34
22 -66 22 -45 0 -84 -7 -262 -44 -62 -13 -62 -13 -101 17 -85 64 -208 140
-306 188 -57 27 -118 57 -137 67 -32 16 -38 26 -76 142 -50 148 -77 205 -107
221 -17 9 -152 12 -504 13 -265 1 -497 -2 -517 -5z m558 -960 c402 -14 784
-261 975 -630 92 -179 128 -331 128 -539 1 -118 -4 -165 -23 -255 -72 -343
-331 -664 -650 -807 -33 -15 -62 -25 -64 -23 -2 3 -4 81 -5 175 l-1 170 50 34
c192 128 325 335 366 571 22 127 1 320 -50 451 -61 159 -191 313 -345 408
-109 69 -172 71 -213 9 -16 -24 -18 -57 -20 -343 -1 -173 -2 -320 -2 -326 -1
-10 -171 -127 -204 -139 -11 -5 -171 93 -216 131 -2 2 -4 149 -5 327 -1 293
-3 325 -19 350 -40 62 -104 59 -211 -7 -197 -123 -338 -322 -389 -549 -24
-106 -20 -273 8 -384 48 -188 158 -356 307 -468 33 -25 67 -49 76 -54 12 -7
15 -38 15 -180 0 -94 -2 -174 -6 -177 -12 -12 -215 95 -294 155 -227 171 -372
411 -428 711 -14 73 -13 305 1 395 29 177 104 371 199 509 135 197 353 361
574 430 92 29 326 69 351 60 3 -1 46 -4 95 -5z"/>
</g>
</svg>
